<?xml version="1.0" encoding="utf-8"?>
<!-- Generator: Adobe Illustrator 23.0.3, SVG Export Plug-In . SVG Version: 6.00 Build 0)  -->
<svg version="1.1" id="Layer_1" xmlns="http://www.w3.org/2000/svg" xmlns:xlink="http://www.w3.org/1999/xlink" x="0px" y="0px"
	 viewBox="0 0 20 20" style="enable-background:new 0 0 20 20;" xml:space="preserve">
<style type="text/css">
	.st0{fill:none;stroke:#CC0000;stroke-width:0.25;stroke-miterlimit:10;}
	.st1{fill:url(#SVGID_1_);}
	.st2{fill:url(#SVGID_2_);}
</style>
<g>
	<circle class="st0" cx="10" cy="10" r="2.5"/>
	<circle class="st0" cx="10" cy="10" r="5"/>
	<circle class="st0" cx="10" cy="10" r="7.5"/>
	<line class="st0" x1="10" y1="2.5" x2="10" y2="17.5"/>
	<line class="st0" x1="6.25" y1="3.5" x2="13.75" y2="16.5"/>
	<line class="st0" x1="3.5" y1="6.25" x2="16.5" y2="13.75"/>
	<line class="st0" x1="2.5" y1="10" x2="17.5" y2="10"/>
	<line class="st0" x1="3.5" y1="13.75" x2="16.5" y2="6.25"/>
	<line class="st0" x1="6.25" y1="16.5" x2="13.75" y2="3.5"/>
	<g>
		<linearGradient id="SVGID_1_" gradientUnits="userSpaceOnUse" x1="9.5481" y1="10.1961" x2="13.0101" y2="16.1925">
			<stop  offset="0.3417" style="stop-color:#CC0000"/>
			<stop  offset="0.7918" style="stop-color:#CC0000;stop-opacity:0"/>
		</linearGradient>
		<path class="st1" d="M10,9.94l-2.59,4.49c0.03,0.05,0.05,0.1,0.08,0.15c0.19,0.35,0.44,0.62,0.63,0.78
			c0.19,0.16,0.58,0.2,0.66,0.21c0.26,0.02,0.52,0.05,0.78,0.07c0.02,0,0.88,0,0.91,0c0.32-0.03,0.58-0.02,0.97-0.08
			c0.8-0.24,1.31-1.32,1.4-1.55c0.13-0.34,0.24-0.69,0.34-1.05c0.06-0.21,0.12-0.44,0.12-0.66c-0.01-0.64-0.05-1.29-0.09-1.93
			c-0.03-0.41-0.08-0.81-0.11-1.22c-0.03-0.31-0.06-0.63-0.09-0.94L10,9.94L10,9.94z"/>
		<linearGradient id="SVGID_2_" gradientUnits="userSpaceOnUse" x1="10.3695" y1="9.7218" x2="14.408" y2="16.7168">
			<stop  offset="0.3417" style="stop-color:#CC0000"/>
			<stop  offset="0.7918" style="stop-color:#CC0000;stop-opacity:0"/>
		</linearGradient>
		<path class="st2" d="M16.68,9.33c-0.1-0.34-0.23-0.67-0.44-0.97c-0.17-0.24-0.36-0.47-0.61-0.63c-0.17-0.11-0.36-0.18-0.57-0.19
			c-0.36-0.02-0.71,0.07-1.07,0.1c-0.01,0-0.02,0-0.03,0l-0.65,0.37c0.01,0.09,0.03,0.19,0.04,0.28c0.05,0.37,0.1,0.73,0.13,1.1
			c0.04,0.47,0.08,0.94,0.1,1.41c0.03,0.56,0.04,1.12,0.06,1.68c0,0.05-0.01,0.1-0.02,0.15c-0.1,0.37-0.19,0.75-0.32,1.12
			c-0.14,0.4-0.3,0.79-0.54,1.14c-0.18,0.28-0.39,0.54-0.63,0.77c-0.05,0.04-0.1,0.1-0.16,0.11c-0.31,0.06-0.62,0.16-0.93,0.17
			c-0.89,0.02-1.77,0.08-2.65-0.08c-0.21-0.04-0.41-0.09-0.57-0.26c-0.24-0.25-0.45-0.53-0.62-0.83l-0.28,0.49
			c0.13,0.19,0.27,0.37,0.42,0.54c0.09,0.11,0.19,0.21,0.31,0.29c0.31,0.23,0.69,0.27,1.06,0.31c0.34,0.04,0.69,0.04,1.14,0.06
			c0.67-0.03,1.45,0.03,2.21-0.21c0.15-0.05,0.31-0.11,0.41-0.22c0.25-0.27,0.48-0.57,0.72-0.84c0.08-0.09,0.18-0.17,0.29-0.22
			c0.13-0.07,0.28-0.09,0.42-0.14c0.3-0.1,0.59-0.2,0.88-0.32c0.54-0.22,1.01-0.54,1.38-1.01c0.37-0.48,0.61-1.01,0.69-1.6
			c0.06-0.46,0.08-0.92,0.04-1.38C16.84,10.13,16.79,9.72,16.68,9.33z M15.83,12.04c-0.11,0.36-0.29,0.67-0.57,0.91
			c-0.18,0.15-0.4,0.25-0.6,0.36c-0.12,0.06-0.25,0.09-0.37,0.13c-0.1,0.04-0.22,0.03-0.27-0.06c-0.04-0.06-0.04-0.17-0.01-0.25
			c0.1-0.34,0.17-0.68,0.16-1.03c-0.03-0.89-0.07-1.78-0.1-2.67c-0.01-0.13-0.04-0.26-0.05-0.38c-0.02-0.14,0.06-0.27,0.2-0.29
			c0.24-0.04,0.48-0.07,0.73-0.1c0.27-0.04,0.41,0.1,0.53,0.31c0.14,0.24,0.22,0.5,0.29,0.76c0.12,0.45,0.15,0.91,0.2,1.37
			C15.97,11.42,15.92,11.73,15.83,12.04z"/>
	</g>
</g>
</svg>
